<mxfile host="65bd71144e">
    <diagram id="diagram_1" name="Flujo de Simulación - Sistema GLP">
        <mxGraphModel dx="784" dy="916" grid="1" gridSize="10" guides="1" tooltips="1" connect="1" arrows="1" fold="1" page="1" pageScale="1" pageWidth="1169" pageHeight="1654" math="0" shadow="0">
            <root>
                <mxCell id="0"/>
                <mxCell id="1" parent="0"/>
                <mxCell id="shape_0" value="INICIO" style="rounded=1;whiteSpace=wrap;html=1;fillColor=#8B4049;strokeColor=#8B4049;fontColor=#ffffff;fontSize=14;fontStyle=1" parent="1" vertex="1">
                    <mxGeometry x="500" y="50" width="120" height="60" as="geometry"/>
                </mxCell>
                <mxCell id="shape_1" value="Inicializar&#xa;SimPy.Environment" style="whiteSpace=wrap;html=1;fillColor=#81B29A;strokeColor=#6B8E23;fontSize=12" parent="1" vertex="1">
                    <mxGeometry x="450" y="150" width="220" height="60" as="geometry"/>
                </mxCell>
                <mxCell id="shape_2" value="Crear&#xa;PlantaAlmacenamiento" style="whiteSpace=wrap;html=1;fillColor=#81B29A;strokeColor=#6B8E23;fontSize=12" parent="1" vertex="1">
                    <mxGeometry x="100" y="260" width="180" height="60" as="geometry"/>
                </mxCell>
                <mxCell id="shape_3" value="Crear&#xa;ProveedorExterno" style="whiteSpace=wrap;html=1;fillColor=#81B29A;strokeColor=#6B8E23;fontSize=12" parent="1" vertex="1">
                    <mxGeometry x="340" y="260" width="180" height="60" as="geometry"/>
                </mxCell>
                <mxCell id="shape_4" value="Crear&#xa;Camiones[N]" style="whiteSpace=wrap;html=1;fillColor=#81B29A;strokeColor=#6B8E23;fontSize=12" parent="1" vertex="1">
                    <mxGeometry x="600" y="260" width="180" height="60" as="geometry"/>
                </mxCell>
                <mxCell id="shape_5" value="Crear&#xa;NodoDemanda" style="whiteSpace=wrap;html=1;fillColor=#81B29A;strokeColor=#6B8E23;fontSize=12" parent="1" vertex="1">
                    <mxGeometry x="840" y="260" width="180" height="60" as="geometry"/>
                </mxCell>
                <mxCell id="shape_6" value="while True:&#xa;  monitorear()&#xa;  if crítico:&#xa;    emit()" style="whiteSpace=wrap;html=1;fillColor=#81B29A;strokeColor=#6B8E23;fontSize=12" parent="1" vertex="1">
                    <mxGeometry x="100" y="520" width="180" height="80" as="geometry"/>
                </mxCell>
                <mxCell id="shape_7" value="while True:&#xa;  timeout(10d)&#xa;  put(volumen)" style="whiteSpace=wrap;html=1;fillColor=#81B29A;strokeColor=#6B8E23;fontSize=12" parent="1" vertex="1">
                    <mxGeometry x="340" y="370" width="180" height="80" as="geometry"/>
                </mxCell>
                <mxCell id="shape_8" value="while True:&#xa;  carga()&#xa;  viaje()&#xa;  descarga()" style="whiteSpace=wrap;html=1;fillColor=#81B29A;strokeColor=#6B8E23;fontSize=12" parent="1" vertex="1">
                    <mxGeometry x="600" y="370" width="180" height="80" as="geometry"/>
                </mxCell>
                <mxCell id="shape_9" value="while True:&#xa;  timeout(24h)&#xa;  get(demanda)" style="whiteSpace=wrap;html=1;fillColor=#81B29A;strokeColor=#6B8E23;fontSize=12" parent="1" vertex="1">
                    <mxGeometry x="840" y="520" width="180" height="80" as="geometry"/>
                </mxCell>
                <mxCell id="shape_10" value="env.run(until=T)" style="whiteSpace=wrap;html=1;fillColor=#81B29A;strokeColor=#6B8E23;fontSize=12" parent="1" vertex="1">
                    <mxGeometry x="450" y="530" width="220" height="60" as="geometry"/>
                </mxCell>
                <mxCell id="shape_11" value="Recolectar Métricas" style="whiteSpace=wrap;html=1;fillColor=#81B29A;strokeColor=#6B8E23;fontSize=12" parent="1" vertex="1">
                    <mxGeometry x="450" y="630" width="220" height="60" as="geometry"/>
                </mxCell>
                <mxCell id="shape_12" value="events&#xa;.parquet" style="shape=cylinder3;whiteSpace=wrap;html=1;fillColor=#F4C2C2;strokeColor=#8B4049;fontSize=11" parent="1" vertex="1">
                    <mxGeometry x="310" y="729" width="100" height="98" as="geometry"/>
                </mxCell>
                <mxCell id="shape_13" value="metadata&#xa;.json" style="shape=cylinder3;whiteSpace=wrap;html=1;fillColor=#F4C2C2;strokeColor=#8B4049;fontSize=11" parent="1" vertex="1">
                    <mxGeometry x="512.5" y="732" width="95" height="98" as="geometry"/>
                </mxCell>
                <mxCell id="shape_14" value="summary&#xa;.csv" style="shape=cylinder3;whiteSpace=wrap;html=1;fillColor=#F4C2C2;strokeColor=#8B4049;fontSize=11" parent="1" vertex="1">
                    <mxGeometry x="710" y="729" width="90" height="98" as="geometry"/>
                </mxCell>
                <mxCell id="shape_15" value="FIN" style="rounded=1;whiteSpace=wrap;html=1;fillColor=#8B4049;strokeColor=#8B4049;fontColor=#ffffff;fontSize=14;fontStyle=1" parent="1" vertex="1">
                    <mxGeometry x="500" y="862" width="120" height="60" as="geometry"/>
                </mxCell>
                <mxCell id="conn_0" value="" style="edgeStyle=orthogonalEdgeStyle;rounded=0;orthogonalLoop=1;jettySize=auto;html=1;strokeColor=#8B4049;strokeWidth=2;" parent="1" source="shape_0" target="shape_1" edge="1">
                    <mxGeometry relative="1" as="geometry"/>
                </mxCell>
                <mxCell id="conn_1" value="" style="edgeStyle=orthogonalEdgeStyle;rounded=0;orthogonalLoop=1;jettySize=auto;html=1;strokeColor=#8B4049;strokeWidth=2;" parent="1" source="shape_1" target="shape_2" edge="1">
                    <mxGeometry relative="1" as="geometry"/>
                </mxCell>
                <mxCell id="conn_2" value="" style="edgeStyle=orthogonalEdgeStyle;rounded=0;orthogonalLoop=1;jettySize=auto;html=1;strokeColor=#8B4049;strokeWidth=2;" parent="1" source="shape_1" target="shape_3" edge="1">
                    <mxGeometry relative="1" as="geometry"/>
                </mxCell>
                <mxCell id="conn_3" value="" style="edgeStyle=orthogonalEdgeStyle;rounded=0;orthogonalLoop=1;jettySize=auto;html=1;strokeColor=#8B4049;strokeWidth=2;" parent="1" source="shape_1" target="shape_4" edge="1">
                    <mxGeometry relative="1" as="geometry"/>
                </mxCell>
                <mxCell id="conn_4" value="" style="edgeStyle=orthogonalEdgeStyle;rounded=0;orthogonalLoop=1;jettySize=auto;html=1;strokeColor=#8B4049;strokeWidth=2;" parent="1" source="shape_1" target="shape_5" edge="1">
                    <mxGeometry relative="1" as="geometry"/>
                </mxCell>
                <mxCell id="conn_5" value="env.process()" style="edgeStyle=orthogonalEdgeStyle;rounded=0;orthogonalLoop=1;jettySize=auto;html=1;strokeColor=#8B4049;strokeWidth=2;" parent="1" source="shape_2" target="shape_6" edge="1">
                    <mxGeometry relative="1" as="geometry"/>
                </mxCell>
                <mxCell id="conn_6" value="env.process()" style="edgeStyle=orthogonalEdgeStyle;rounded=0;orthogonalLoop=1;jettySize=auto;html=1;strokeColor=#8B4049;strokeWidth=2;" parent="1" source="shape_3" target="shape_7" edge="1">
                    <mxGeometry relative="1" as="geometry"/>
                </mxCell>
                <mxCell id="conn_7" value="env.process()" style="edgeStyle=orthogonalEdgeStyle;rounded=0;orthogonalLoop=1;jettySize=auto;html=1;strokeColor=#8B4049;strokeWidth=2;" parent="1" source="shape_4" target="shape_8" edge="1">
                    <mxGeometry relative="1" as="geometry"/>
                </mxCell>
                <mxCell id="conn_8" value="env.process()" style="edgeStyle=orthogonalEdgeStyle;rounded=0;orthogonalLoop=1;jettySize=auto;html=1;strokeColor=#8B4049;strokeWidth=2;" parent="1" source="shape_5" target="shape_9" edge="1">
                    <mxGeometry relative="1" as="geometry"/>
                </mxCell>
                <mxCell id="conn_9" value="" style="edgeStyle=orthogonalEdgeStyle;rounded=0;orthogonalLoop=1;jettySize=auto;html=1;strokeColor=#8B4049;strokeWidth=2;" parent="1" source="shape_6" target="shape_10" edge="1">
                    <mxGeometry relative="1" as="geometry"/>
                </mxCell>
                <mxCell id="conn_10" value="" style="edgeStyle=orthogonalEdgeStyle;rounded=0;orthogonalLoop=1;jettySize=auto;html=1;strokeColor=#8B4049;strokeWidth=2;" parent="1" source="shape_7" target="shape_10" edge="1">
                    <mxGeometry relative="1" as="geometry"/>
                </mxCell>
                <mxCell id="conn_11" value="" style="edgeStyle=orthogonalEdgeStyle;rounded=0;orthogonalLoop=1;jettySize=auto;html=1;strokeColor=#8B4049;strokeWidth=2;" parent="1" source="shape_8" target="shape_10" edge="1">
                    <mxGeometry relative="1" as="geometry"/>
                </mxCell>
                <mxCell id="conn_12" value="" style="edgeStyle=orthogonalEdgeStyle;rounded=0;orthogonalLoop=1;jettySize=auto;html=1;strokeColor=#8B4049;strokeWidth=2;" parent="1" source="shape_9" target="shape_10" edge="1">
                    <mxGeometry relative="1" as="geometry"/>
                </mxCell>
                <mxCell id="conn_13" value="" style="edgeStyle=orthogonalEdgeStyle;rounded=0;orthogonalLoop=1;jettySize=auto;html=1;strokeColor=#8B4049;strokeWidth=2;" parent="1" source="shape_10" target="shape_11" edge="1">
                    <mxGeometry relative="1" as="geometry"/>
                </mxCell>
                <mxCell id="conn_14" value="" style="edgeStyle=orthogonalEdgeStyle;rounded=0;orthogonalLoop=1;jettySize=auto;html=1;strokeColor=#8B4049;strokeWidth=2;" parent="1" source="shape_11" target="shape_12" edge="1">
                    <mxGeometry relative="1" as="geometry"/>
                </mxCell>
                <mxCell id="conn_15" value="" style="edgeStyle=orthogonalEdgeStyle;rounded=0;orthogonalLoop=1;jettySize=auto;html=1;strokeColor=#8B4049;strokeWidth=2;" parent="1" source="shape_11" target="shape_13" edge="1">
                    <mxGeometry relative="1" as="geometry"/>
                </mxCell>
                <mxCell id="conn_16" value="" style="edgeStyle=orthogonalEdgeStyle;rounded=0;orthogonalLoop=1;jettySize=auto;html=1;strokeColor=#8B4049;strokeWidth=2;" parent="1" source="shape_11" target="shape_14" edge="1">
                    <mxGeometry relative="1" as="geometry"/>
                </mxCell>
                <mxCell id="conn_17" value="" style="edgeStyle=orthogonalEdgeStyle;rounded=0;orthogonalLoop=1;jettySize=auto;html=1;strokeColor=#8B4049;strokeWidth=2;" parent="1" source="shape_13" target="shape_15" edge="1">
                    <mxGeometry relative="1" as="geometry"/>
                </mxCell>
            </root>
        </mxGraphModel>
    </diagram>
</mxfile>